<svg xmlns="http://www.w3.org/2000/svg" width="108" height="107.259" viewBox="0 0 108 107.259"><g transform="translate(-46 153.943)"><path d="M61.9-153.1c-4.4,1.4-7.3,3.2-11.6,7.4L46-141.6v10.5c0,9.6.2,10.7,2.5,13.7a28.151,28.151,0,0,0,7.3,6.1c4.1,2.5,15.081,3.135,23.3,0v24.865c0,20.4-.5,21.276,1.5,23.776,1.266,1.595,2.8,1.578,5.1,1.807a5.943,5.943,0,0,0,5.332-1.807c2-2,1.391-1.8,1.091-34.3-.5-36.6.777-39.639-5.123-47.939C81.7-152.1,70.7-155.7,61.9-153.1Zm15.6,7c3.8,2.2,7.1,7,9.1,13.5,1.3,4,1.7,11.4,2.1,33.8C89-83,89-69,88.6-67.5c-.5,2-1.2,2.6-2.9,2.3-2.2-.3-2.2-.3-2.5-26.6-.1-14.4-.4-26.2-.6-26.2s-2.8,1.1-5.8,2.5c-6.6,3.1-9.9,3.1-16.4.1-7.8-3.6-9.4-6.3-9.4-15.5,0-7.4.1-7.8,3.3-10.8C61.7-148.7,70-150.3,77.5-146.1Z"/><path d="M122-138.5a24.579,24.579,0,0,0-11.2,10.9c-4,7.8-3.137,16.25-3.137,48.05v29.072c.843,5.054,12.484,5.363,12.837-.921V-97.652c16.952,3.2,23.9,1.352,29.7-4.648l3.8-3.9V-128l-3.8-3.8a38.131,38.131,0,0,0-7.7-5.7C137.2-140,126.6-140.5,122-138.5Zm17.9,6a28.425,28.425,0,0,1,6,4.5c2.9,3,3.1,3.6,3.1,10.6,0,8.8-1.3,11.3-7.7,15.1-5.8,3.4-13.5,3.6-18.8.4a19.081,19.081,0,0,0-4.6-2.1c-.5,0-.9,10.4-.9,26,0,22.3-.2,26.1-1.5,26.6a3.088,3.088,0,0,1-3-.6c-1.3-1-1.5-5.3-1.5-26.4.1-25.1,1-37.4,3.2-43.1C118.6-133,129.8-137.8,139.9-132.5Z"/></g></svg>